<svg xmlns="http://www.w3.org/2000/svg" width="1440" height="900" viewBox="0 0 1440 900" role="img" aria-labelledby="title desc"><title id="title">OverSeek analytics</title><desc id="desc">Analytics workspace with revenue cards, attribution flow, cohort retention and live acquisition panels.</desc><defs><linearGradient id="bg" x1="0" x2="1" y1="0" y2="1"><stop stop-color="#f8fafc"/><stop offset="1" stop-color="#faf5ff"/></linearGradient><linearGradient id="brand" x1="0" x2="1"><stop stop-color="#7c3aed"/><stop offset="1" stop-color="#2563eb"/></linearGradient><filter id="shadow" x="-20%" y="-20%" width="140%" height="140%"><feDropShadow dx="0" dy="18" stdDeviation="22" flood-color="#0f172a" flood-opacity="0.14"/></filter></defs><rect width="1440" height="900" fill="url(#bg)"/><rect x="44" y="40" width="1352" height="820" rx="34" fill="#fff" filter="url(#shadow)"/><g font-family="Inter,Arial"><text x="96" y="120" font-size="34" font-weight="800" fill="#0f172a">Analytics</text><text x="96" y="154" font-size="16" fill="#64748b">Revenue, attribution, cohorts, CLV and live acquisition.</text><rect x="1060" y="86" width="238" height="48" rx="15" fill="#f5f3ff"/><text x="1104" y="116" font-size="15" font-weight="800" fill="#6d28d9">7d · 30d · 90d · YTD</text><rect x="96" y="204" width="285" height="156" rx="24" fill="#0f172a"/><text x="126" y="246" font-size="14" fill="#a78bfa">Gross revenue</text><text x="126" y="296" font-size="42" font-weight="800" fill="#fff">$88.4k</text><text x="126" y="328" font-size="16" fill="#34d399">+12.8%</text><rect x="410" y="204" width="285" height="156" rx="24" fill="#fff" stroke="#e2e8f0"/><text x="440" y="246" font-size="14" fill="#64748b">MER</text><text x="440" y="296" font-size="42" font-weight="800" fill="#0f172a">5.2x</text><rect x="724" y="204" width="285" height="156" rx="24" fill="#fff" stroke="#e2e8f0"/><text x="754" y="246" font-size="14" fill="#64748b">New customers</text><text x="754" y="296" font-size="42" font-weight="800" fill="#0f172a">1,482</text><rect x="1038" y="204" width="285" height="156" rx="24" fill="#fff" stroke="#e2e8f0"/><text x="1068" y="246" font-size="14" fill="#64748b">CLV</text><text x="1068" y="296" font-size="42" font-weight="800" fill="#0f172a">$214</text><rect x="96" y="404" width="590" height="310" rx="28" fill="#fff" stroke="#e2e8f0"/><text x="130" y="452" font-size="22" font-weight="800" fill="#0f172a">Revenue trend</text><path d="M132 640 C202 520 278 600 342 494 S477 444 532 532 S615 498 650 440" fill="none" stroke="url(#brand)" stroke-width="8" stroke-linecap="round"/><g fill="#e9d5ff"><rect x="132" y="560" width="42" height="104" rx="10"/><rect x="198" y="512" width="42" height="152" rx="10"/><rect x="264" y="584" width="42" height="80" rx="10"/><rect x="330" y="470" width="42" height="194" rx="10"/><rect x="396" y="502" width="42" height="162" rx="10"/><rect x="462" y="442" width="42" height="222" rx="10"/><rect x="528" y="492" width="42" height="172" rx="10"/><rect x="594" y="430" width="42" height="234" rx="10"/></g><rect x="724" y="404" width="599" height="310" rx="28" fill="#fff" stroke="#e2e8f0"/><text x="758" y="452" font-size="22" font-weight="800" fill="#0f172a">Attribution flow</text><circle cx="820" cy="548" r="42" fill="#dbeafe"/><circle cx="1018" cy="548" r="58" fill="#ede9fe"/><circle cx="1210" cy="548" r="42" fill="#dcfce7"/><path d="M862 548 H960" stroke="#7c3aed" stroke-width="8" stroke-linecap="round"/><path d="M1076 548 H1168" stroke="#2563eb" stroke-width="8" stroke-linecap="round"/><text x="786" y="622" font-size="15" fill="#475569">Paid</text><text x="978" y="628" font-size="15" fill="#475569">Store</text><text x="1178" y="622" font-size="15" fill="#475569">Order</text></g></svg>
