<svg xmlns="http://www.w3.org/2000/svg" width="1440" height="900" viewBox="0 0 1440 900" role="img" aria-labelledby="title desc"><title id="title">OverSeek commerce and shipping</title><desc id="desc">Commerce and shipping hub preview with orders ready to dispatch, package presets, label history and operations monitoring.</desc><defs><linearGradient id="bg" x1="0" x2="1" y1="0" y2="1"><stop stop-color="#f8fafc"/><stop offset="1" stop-color="#ecfdf5"/></linearGradient><linearGradient id="brand" x1="0" x2="1"><stop stop-color="#059669"/><stop offset="1" stop-color="#2563eb"/></linearGradient><filter id="shadow" x="-20%" y="-20%" width="140%" height="140%"><feDropShadow dx="0" dy="18" stdDeviation="22" flood-color="#0f172a" flood-opacity="0.14"/></filter></defs><rect width="1440" height="900" fill="url(#bg)"/><rect x="44" y="40" width="1352" height="820" rx="34" fill="#fff" filter="url(#shadow)"/><g font-family="Inter,Arial"><text x="96" y="116" font-size="34" font-weight="800" fill="#0f172a">Commerce + shipping hub</text><text x="96" y="150" font-size="16" fill="#64748b">Orders, inventory, packages, labels and dispatch in the same workflow.</text><rect x="96" y="196" width="280" height="138" rx="24" fill="#064e3b"/><text x="126" y="238" font-size="14" fill="#a7f3d0">Ready to ship</text><text x="126" y="286" font-size="42" font-weight="800" fill="#fff">46</text><rect x="408" y="196" width="280" height="138" rx="24" fill="#fff" stroke="#e2e8f0"/><text x="438" y="238" font-size="14" fill="#64748b">Needs attention</text><text x="438" y="286" font-size="42" font-weight="800" fill="#0f172a">9</text><rect x="720" y="196" width="280" height="138" rx="24" fill="#fff" stroke="#e2e8f0"/><text x="750" y="238" font-size="14" fill="#64748b">Labels today</text><text x="750" y="286" font-size="42" font-weight="800" fill="#0f172a">31</text><rect x="1032" y="196" width="280" height="138" rx="24" fill="#fff" stroke="#e2e8f0"/><text x="1062" y="238" font-size="14" fill="#64748b">Carrier health</text><text x="1062" y="286" font-size="42" font-weight="800" fill="#0f172a">OK</text><rect x="96" y="382" width="760" height="370" rx="28" fill="#fff" stroke="#e2e8f0"/><text x="130" y="432" font-size="22" font-weight="800" fill="#0f172a">Dispatch queue</text><rect x="130" y="470" width="690" height="58" rx="16" fill="#f0fdf4"/><text x="158" y="506" font-size="16" font-weight="800" fill="#064e3b">#58421 · Mia Chen · 500g satchel · valid address</text><rect x="130" y="548" width="690" height="58" rx="16" fill="#fff7ed"/><text x="158" y="584" font-size="16" font-weight="800" fill="#9a3412">#58418 · needs postcode correction</text><rect x="130" y="626" width="690" height="58" rx="16" fill="#f0fdf4"/><text x="158" y="662" font-size="16" font-weight="800" fill="#064e3b">#58416 · auto rate selected · print ready</text><rect x="888" y="382" width="424" height="370" rx="28" fill="#f8fafc" stroke="#e2e8f0"/><text x="922" y="432" font-size="22" font-weight="800" fill="#0f172a">Package presets</text><rect x="922" y="470" width="340" height="62" rx="16" fill="#fff"/><text x="948" y="508" font-size="16" fill="#334155">Small jewellery box · 12 x 9 x 4 cm</text><rect x="922" y="552" width="340" height="62" rx="16" fill="#fff"/><text x="948" y="590" font-size="16" fill="#334155">Padded satchel · 20 x 15 x 2 cm</text><rect x="922" y="634" width="340" height="62" rx="16" fill="url(#brand)"/><text x="948" y="672" font-size="16" font-weight="800" fill="#fff">Bulk print ready labels</text></g></svg>
