<svg xmlns="http://www.w3.org/2000/svg" width="1440" height="900" viewBox="0 0 1440 900" role="img" aria-labelledby="title desc"><title id="title">OverSeek email automation</title><desc id="desc">Email marketing preview with dashboard, flows, broadcasts, segments, lists, logs and blocked contacts.</desc><defs><linearGradient id="bg" x1="0" x2="1" y1="0" y2="1"><stop stop-color="#f8fafc"/><stop offset="1" stop-color="#eef2ff"/></linearGradient><linearGradient id="brand" x1="0" x2="1"><stop stop-color="#4f46e5"/><stop offset="1" stop-color="#06b6d4"/></linearGradient><filter id="shadow" x="-20%" y="-20%" width="140%" height="140%"><feDropShadow dx="0" dy="18" stdDeviation="22" flood-color="#0f172a" flood-opacity="0.14"/></filter></defs><rect width="1440" height="900" fill="url(#bg)"/><rect x="44" y="40" width="1352" height="820" rx="34" fill="#fff" filter="url(#shadow)"/><g font-family="Inter,Arial"><text x="96" y="118" font-size="34" font-weight="800" fill="#0f172a">Email automation</text><text x="96" y="152" font-size="16" fill="#64748b">Flows, broadcasts, customer segments, delivery logs and suppression controls.</text><rect x="96" y="202" width="290" height="150" rx="24" fill="#111827"/><text x="126" y="244" font-size="14" fill="#a5b4fc">Sent today</text><text x="126" y="292" font-size="42" font-weight="800" fill="#fff">18,420</text><rect x="418" y="202" width="290" height="150" rx="24" fill="#fff" stroke="#e2e8f0"/><text x="448" y="244" font-size="14" fill="#64748b">Open rate</text><text x="448" y="292" font-size="42" font-weight="800" fill="#0f172a">42%</text><rect x="740" y="202" width="290" height="150" rx="24" fill="#fff" stroke="#e2e8f0"/><text x="770" y="244" font-size="14" fill="#64748b">Revenue</text><text x="770" y="292" font-size="42" font-weight="800" fill="#0f172a">$9.8k</text><rect x="1062" y="202" width="250" height="150" rx="24" fill="#fff" stroke="#e2e8f0"/><text x="1092" y="244" font-size="14" fill="#64748b">Failed</text><text x="1092" y="292" font-size="42" font-weight="800" fill="#0f172a">12</text><rect x="96" y="398" width="740" height="330" rx="28" fill="#fff" stroke="#e2e8f0"/><text x="130" y="448" font-size="22" font-weight="800" fill="#0f172a">Flow builder</text><circle cx="190" cy="552" r="42" fill="#dbeafe"/><text x="164" y="558" font-size="14" font-weight="800" fill="#1e40af">Trigger</text><rect x="300" y="514" width="150" height="76" rx="20" fill="#eef2ff"/><text x="336" y="558" font-size="15" font-weight="800" fill="#3730a3">Wait 2h</text><rect x="532" y="514" width="170" height="76" rx="20" fill="#ecfeff"/><text x="566" y="558" font-size="15" font-weight="800" fill="#155e75">Send email</text><path d="M232 552 H300 M450 552 H532" stroke="#4f46e5" stroke-width="7" stroke-linecap="round"/><rect x="872" y="398" width="440" height="330" rx="28" fill="#f8fafc" stroke="#e2e8f0"/><text x="906" y="448" font-size="22" font-weight="800" fill="#0f172a">Delivery logs</text><rect x="906" y="486" width="356" height="48" rx="14" fill="#fff"/><text x="930" y="516" font-size="15" fill="#334155">Broadcast sent · 8,204 recipients</text><rect x="906" y="552" width="356" height="48" rx="14" fill="#fff"/><text x="930" y="582" font-size="15" fill="#334155">Automation email · delivered</text><rect x="906" y="618" width="356" height="48" rx="14" fill="#fee2e2"/><text x="930" y="648" font-size="15" fill="#991b1b">Bounce blocked by suppression list</text></g></svg>
