<svg xmlns="http://www.w3.org/2000/svg" width="1440" height="900" viewBox="0 0 1440 900" role="img" aria-labelledby="title desc"><title id="title">OverSeek growth and SEO</title><desc id="desc">Growth workspace preview showing paid ads, reviews, SEO keywords, SEO content, feeds and AI manager modules.</desc><defs><linearGradient id="bg" x1="0" x2="1" y1="0" y2="1"><stop stop-color="#f8fafc"/><stop offset="1" stop-color="#fff7ed"/></linearGradient><linearGradient id="brand" x1="0" x2="1"><stop stop-color="#f97316"/><stop offset="1" stop-color="#ec4899"/></linearGradient><filter id="shadow" x="-20%" y="-20%" width="140%" height="140%"><feDropShadow dx="0" dy="18" stdDeviation="22" flood-color="#0f172a" flood-opacity="0.14"/></filter></defs><rect width="1440" height="900" fill="url(#bg)"/><rect x="44" y="40" width="1352" height="820" rx="34" fill="#fff" filter="url(#shadow)"/><g font-family="Inter,Arial"><text x="96" y="118" font-size="34" font-weight="800" fill="#0f172a">Growth workspace</text><text x="96" y="152" font-size="16" fill="#64748b">Paid ads, reviews, organic search, SEO content, feeds and AI suggestions.</text><rect x="96" y="202" width="360" height="230" rx="28" fill="#fff" stroke="#e2e8f0"/><text x="130" y="250" font-size="22" font-weight="800" fill="#0f172a">SEO keywords</text><text x="130" y="294" font-size="42" font-weight="800" fill="#0f172a">1,284</text><text x="130" y="326" font-size="16" fill="#16a34a">+94 clicks this week</text><path d="M132 380 C184 330 248 386 302 338 S396 320 424 276" fill="none" stroke="#f97316" stroke-width="7" stroke-linecap="round"/><rect x="492" y="202" width="360" height="230" rx="28" fill="#111827"/><text x="526" y="250" font-size="22" font-weight="800" fill="#fff">Reviews</text><text x="526" y="294" font-size="42" font-weight="800" fill="#fff">4.8</text><text x="526" y="326" font-size="16" fill="#fde68a">AI replies ready for pending reviews</text><text x="526" y="384" font-size="34" fill="#fbbf24">★★★★★</text><rect x="888" y="202" width="360" height="230" rx="28" fill="#fff" stroke="#e2e8f0"/><text x="922" y="250" font-size="22" font-weight="800" fill="#0f172a">Product feeds</text><text x="922" y="294" font-size="42" font-weight="800" fill="#0f172a">98%</text><text x="922" y="326" font-size="16" fill="#64748b">Merchant-ready catalogue health</text><rect x="96" y="480" width="552" height="250" rx="28" fill="#fff" stroke="#e2e8f0"/><text x="130" y="530" font-size="22" font-weight="800" fill="#0f172a">Paid ads insights</text><rect x="130" y="568" width="460" height="44" rx="14" fill="#fff7ed"/><text x="154" y="596" font-size="15" fill="#9a3412">Exclude out-of-stock products from campaign group</text><rect x="130" y="632" width="460" height="44" rx="14" fill="#fdf2f8"/><text x="154" y="660" font-size="15" fill="#9d174d">Creative fatigue detected on retargeting ad set</text><rect x="684" y="480" width="564" height="250" rx="28" fill="url(#brand)"/><text x="724" y="532" font-size="24" font-weight="800" fill="#fff">SEO content studio</text><text x="724" y="574" font-size="17" fill="#ffedd5">Draft, compare, score and publish product/category copy with store-aware context.</text><rect x="724" y="626" width="390" height="52" rx="16" fill="#ffffff" fill-opacity="0.18"/><text x="750" y="659" font-size="15" fill="#fff">Content score: 87 · internal links: 6 · intent matched</text></g></svg>
